<svg xmlns="http://www.w3.org/2000/svg" xmlns:xlink="http://www.w3.org/1999/xlink" width="512" height="3776.527"><symbol id="icon-settings" viewBox="0 0 478.703 478.703"><title>settings</title><g fill="#FFF"><path d="M454.2 189.101l-33.6-5.7c-3.5-11.3-8-22.2-13.5-32.6l19.8-27.7c8.4-11.8 7.1-27.9-3.2-38.1l-29.8-29.8c-5.6-5.6-13-8.7-20.9-8.7-6.2 0-12.1 1.9-17.1 5.5l-27.8 19.8c-10.8-5.7-22.1-10.4-33.8-13.9l-5.6-33.2a29.54 29.54 0 0 0-29.2-24.7h-42.1c-14.5 0-26.8 10.4-29.2 24.7l-5.8 34c-11.2 3.5-22.1 8.1-32.5 13.7l-27.5-19.8c-5-3.6-11-5.5-17.2-5.5-7.9 0-15.4 3.1-20.9 8.7l-29.9 29.8c-10.2 10.2-11.6 26.3-3.2 38.1l20 28.1c-5.5 10.5-9.9 21.4-13.3 32.7l-33.2 5.6a29.54 29.54 0 0 0-24.7 29.2v42.1c0 14.5 10.4 26.8 24.7 29.2l34 5.8c3.5 11.2 8.1 22.1 13.7 32.5l-19.7 27.4c-8.4 11.8-7.1 27.9 3.2 38.1l29.8 29.8c5.6 5.6 13 8.7 20.9 8.7 6.2 0 12.1-1.9 17.1-5.5l28.1-20c10.1 5.3 20.7 9.6 31.6 13l5.6 33.6a29.54 29.54 0 0 0 29.2 24.7h42.2c14.5 0 26.8-10.4 29.2-24.7l5.7-33.6c11.3-3.5 22.2-8 32.6-13.5l27.7 19.8c5 3.6 11 5.5 17.2 5.5 7.9 0 15.3-3.1 20.9-8.7l29.8-29.8c10.2-10.2 11.6-26.3 3.2-38.1l-19.8-27.8c5.5-10.5 10.1-21.4 13.5-32.6l33.6-5.6a29.54 29.54 0 0 0 24.7-29.2v-42.1c.2-14.5-10.2-26.8-24.5-29.2zm-2.3 71.3c0 1.3-.9 2.4-2.2 2.6l-42 7c-5.3.9-9.5 4.8-10.8 9.9-3.8 14.7-9.6 28.8-17.4 41.9-2.7 4.6-2.5 10.3.6 14.7l24.7 34.8c.7 1 .6 2.5-.3 3.4l-29.8 29.8c-.7.7-1.4.8-1.9.8-.6 0-1.1-.2-1.5-.5l-34.7-24.7c-4.3-3.1-10.1-3.3-14.7-.6-13.1 7.8-27.2 13.6-41.9 17.4-5.2 1.3-9.1 5.6-9.9 10.8l-7.1 42c-.2 1.3-1.3 2.2-2.6 2.2h-42.1c-1.3 0-2.4-.9-2.6-2.2l-7-42c-.9-5.3-4.8-9.5-9.9-10.8-14.3-3.7-28.1-9.4-41-16.8-2.1-1.2-4.5-1.8-6.8-1.8-2.7 0-5.5.8-7.8 2.5l-35 24.9c-.5.3-1 .5-1.5.5-.4 0-1.2-.1-1.9-.8l-29.8-29.8c-.9-.9-1-2.3-.3-3.4l24.6-34.5c3.1-4.4 3.3-10.2.6-14.8-7.8-13-13.8-27.1-17.6-41.8-1.4-5.1-5.6-9-10.8-9.9l-42.3-7.2c-1.3-.2-2.2-1.3-2.2-2.6v-42.1c0-1.3.9-2.4 2.2-2.6l41.7-7c5.3-.9 9.6-4.8 10.9-10 3.7-14.7 9.4-28.9 17.1-42 2.7-4.6 2.4-10.3-.7-14.6l-24.9-35c-.7-1-.6-2.5.3-3.4l29.8-29.8c.7-.7 1.4-.8 1.9-.8.6 0 1.1.2 1.5.5l34.5 24.6c4.4 3.1 10.2 3.3 14.8.6 13-7.8 27.1-13.8 41.8-17.6 5.1-1.4 9-5.6 9.9-10.8l7.2-42.3c.2-1.3 1.3-2.2 2.6-2.2h42.1c1.3 0 2.4.9 2.6 2.2l7 41.7c.9 5.3 4.8 9.6 10 10.9 15.1 3.8 29.5 9.7 42.9 17.6 4.6 2.7 10.3 2.5 14.7-.6l34.5-24.8c.5-.3 1-.5 1.5-.5.4 0 1.2.1 1.9.8l29.8 29.8c.9.9 1 2.3.3 3.4l-24.7 34.7c-3.1 4.3-3.3 10.1-.6 14.7 7.8 13.1 13.6 27.2 17.4 41.9 1.3 5.2 5.6 9.1 10.8 9.9l42 7.1c1.3.2 2.2 1.3 2.2 2.6v42.1h-.1z"/><path d="M239.4 136.001c-57 0-103.3 46.3-103.3 103.3s46.3 103.3 103.3 103.3 103.3-46.3 103.3-103.3-46.3-103.3-103.3-103.3zm0 179.6c-42.1 0-76.3-34.2-76.3-76.3s34.2-76.3 76.3-76.3 76.3 34.2 76.3 76.3-34.2 76.3-76.3 76.3z"/></g></symbol><symbol id="icon-settings-color" viewBox="0 0 490.05 490.05"><title>settings-color</title><path d="M250.15 485.85l24.5-10.1c13.1-5.4 19.3-20.5 13.9-33.5l-6.3-15.2c12.3-9.1 23-19.9 32.2-32.2l15.2 6.3a25.6 25.6 0 0 0 19.6 0c6.3-2.6 11.3-7.6 13.9-13.9l10.2-24.5c5.4-13.1-.8-28.1-13.9-33.5l-22.5-9.3c-5.1-2.1-10.8.3-12.9 5.4s.3 10.8 5.4 12.9l22.5 9.3c3 1.2 4.4 4.7 3.2 7.7l-10.2 24.5c-.6 1.4-1.7 2.6-3.2 3.2-1.4.6-3 .6-4.5 0l-22.5-9.3c-4.4-1.8-9.4-.3-12 3.6-10.1 15.2-22.9 28-38.1 38.1-3.9 2.6-5.5 7.7-3.7 12l9.3 22.5c1.2 3-.2 6.4-3.2 7.7l-24.5 10.1c-1.4.6-3 .6-4.5 0-1.4-.6-2.6-1.7-3.2-3.2l-9.3-22.5c-1.8-4.4-6.4-6.9-11.1-5.9-17.8 3.6-36 3.5-53.8 0-4.6-.9-9.3 1.6-11.1 5.9l-9.3 22.5c-1.2 3-4.7 4.4-7.7 3.2l-24.5-10.2c-1.4-.6-2.6-1.7-3.2-3.2-.6-1.4-.6-3 0-4.5l9.3-22.5c1.8-4.4.3-9.4-3.6-12-15.2-10.1-28-22.9-38.1-38.1-2.6-3.9-7.7-5.5-12-3.7l-22.5 9.3c-1.5.6-3 .6-4.5 0-1.4-.6-2.6-1.7-3.2-3.2l-10.1-24.5c-.6-1.4-.6-3 0-4.5.6-1.4 1.7-2.6 3.2-3.2l22.5-9.3c4.4-1.8 6.8-6.4 5.9-11.1-3.6-17.8-3.5-36 0-53.8.9-4.6-1.6-9.3-5.9-11.1l-22.5-9.3c-3-1.2-4.4-4.7-3.2-7.7l10.2-24.5c1.2-3 4.7-4.4 7.7-3.2l22.5 9.3c4.4 1.8 9.4.3 12-3.6 10.1-15.2 22.9-28 38.1-38.1 3.9-2.6 5.5-7.7 3.7-12l-9.3-22.5c-.6-1.4-.6-3 0-4.5.6-1.4 1.7-2.6 3.2-3.2l24.5-10.1c1.4-.6 3-.6 4.5 0 1.4.6 2.6 1.7 3.2 3.2l9.3 22.5c2.1 5.1 7.9 7.5 12.9 5.4 5.1-2.1 7.5-7.9 5.4-12.9l-9.3-22.5c-2.6-6.3-7.6-11.3-13.9-13.9-3.2-1.3-6.5-2-9.8-2s-6.7.7-9.8 2l-24.5 10.1c-6.3 2.6-11.3 7.6-13.9 13.9a25.6 25.6 0 0 0 0 19.6l6.3 15.2c-12.3 9.1-23 19.9-32.2 32.2l-15.2-6.3c-13.1-5.4-28.1.8-33.5 13.9l-10.3 24.5c-5.4 13.1.8 28.1 13.9 33.5l15.2 6.3c-2.2 15.1-2.2 30.4 0 45.5l-15.2 6.3c-6.3 2.6-11.3 7.6-13.9 13.9s-2.6 13.3 0 19.6l10.1 24.5c2.6 6.3 7.6 11.3 13.9 13.9s13.3 2.6 19.6 0l15.2-6.3c9.1 12.3 19.9 23 32.2 32.2l-6.3 15.2a25.6 25.6 0 0 0 0 19.6c2.6 6.3 7.6 11.3 13.9 13.9l24.5 10.2c13.1 5.4 28.1-.8 33.5-13.9l6.3-15.2c15.1 2.2 30.4 2.2 45.5 0l6.3 15.2c2.6 6.3 7.6 11.3 13.9 13.9a25.6 25.6 0 0 0 19.6 0z" fill="#2c2f33"/><path d="M107.15 300.75c.3 44.2 36.4 79.9 80.5 79.9h.6c21.5-.2 41.7-8.7 56.8-24 15.1-15.3 23.3-35.6 23.2-57.1 0-5.4-4.5-9.8-9.9-9.8h-.1c-5.5 0-9.9 4.5-9.8 10 .1 16.2-6.1 31.5-17.5 43.1s-26.6 18-42.8 18.1h-.4c-33.3 0-60.5-27-60.7-60.3-.2-33.5 26.8-60.9 60.3-61.2 5.5 0 9.9-4.5 9.8-10 0-5.4-4.5-9.8-9.9-9.8h-.1c-44.5.3-80.3 36.7-80 81.1z" fill="#2c2f33"/><path d="M354.75 2.25h-19.3c-11.8 0-21.4 9.6-21.4 21.4v9.9c-9.6 2.6-18.8 6.4-27.4 11.4l-7-7c-4-4-9.4-6.3-15.1-6.3s-11.1 2.2-15.1 6.3l-13.6 13.6c-4 4-6.3 9.4-6.3 15.1s2.2 11.1 6.3 15.1l7 7c-5 8.6-8.8 17.8-11.4 27.4h-9.9c-11.8 0-21.4 9.6-21.4 21.4v19.3c0 11.8 9.6 21.4 21.4 21.4h9.9c2.6 9.6 6.4 18.8 11.4 27.4l-7 7c-4 4-6.3 9.4-6.3 15.1s2.2 11.1 6.3 15.1l13.6 13.6c4 4 9.4 6.3 15.1 6.3s11.1-2.2 15.1-6.3l7-7c8.6 5 17.8 8.8 27.4 11.4v9.9c0 11.8 9.6 21.4 21.4 21.4h19.3c11.8 0 21.4-9.6 21.4-21.4v-9.9c9.6-2.6 18.8-6.4 27.4-11.4l7 7c4 4 9.4 6.3 15.1 6.3s11.1-2.2 15.1-6.3l13.6-13.6c8.3-8.3 8.3-21.9 0-30.2l-7-7c5-8.6 8.8-17.8 11.4-27.4h9.9c11.8 0 21.4-9.6 21.4-21.4v-19.3c0-11.8-9.6-21.4-21.4-21.4h-9.9c-2.6-9.6-6.4-18.8-11.4-27.4l7-7c8.3-8.3 8.3-21.9 0-30.2l-13.6-13.6c-4-4-9.4-6.3-15.1-6.3s-11.1 2.2-15.1 6.3l-7 7c-8.6-5-17.8-8.8-27.4-11.4v-9.9c-.1-11.8-9.7-21.4-21.4-21.4zm44.7 63.4c1.7 1.1 3.6 1.7 5.5 1.7 2.6 0 5.1-1 7-2.9l12.5-12.5c.4-.4.8-.5 1.1-.5s.7.1 1.1.5l13.6 13.6c.6.6.6 1.6 0 2.2l-12.5 12.5c-3.3 3.3-3.9 8.6-1.2 12.5 7.2 10.7 12.1 22.6 14.6 35.2.9 4.6 5 8 9.7 8h17.7c.9 0 1.6.7 1.6 1.6v19.3c0 .9-.7 1.6-1.6 1.6h-17.7c-4.7 0-8.8 3.3-9.7 8-2.5 12.6-7.4 24.5-14.6 35.2-2.6 3.9-2.1 9.2 1.2 12.5l12.5 12.5c.6.6.6 1.6 0 2.2l-13.6 13.6c-.4.4-.8.5-1.1.5s-.7-.1-1.1-.5l-12.5-12.7c-3.3-3.3-8.6-3.9-12.5-1.2-10.7 7.2-22.6 12.1-35.2 14.6-4.6.9-8 5-8 9.7v17.7c0 .9-.7 1.6-1.6 1.6h-19.3c-.9 0-1.6-.7-1.6-1.6v-17.7c0-4.7-3.3-8.8-8-9.7-12.6-2.5-24.5-7.4-35.2-14.6-3.9-2.6-9.2-2.1-12.5 1.2l-12.5 12.5c-.4.4-.8.5-1.1.5s-.7-.1-1.1-.5l-13.6-13.6c-.4-.4-.5-.8-.5-1.1s.1-.7.5-1.1l12.5-12.5c3.3-3.3 3.9-8.6 1.2-12.5-7.2-10.7-12.1-22.6-14.6-35.2-.9-4.6-5-8-9.7-8h-17.7c-.9 0-1.6-.7-1.6-1.6v-19.3c0-.9.7-1.6 1.6-1.6h17.7c4.7 0 8.8-3.3 9.7-8 2.5-12.6 7.4-24.5 14.6-35.2 2.6-3.9 2.1-9.2-1.2-12.5l-12.5-12.5c-.4-.4-.5-.8-.5-1.1s.1-.7.5-1.1l13.6-13.6c.4-.4.8-.5 1.1-.5s.7.1 1.1.5l12.5 12.5c3.3 3.3 8.6 3.9 12.5 1.2 10.7-7.2 22.6-12.1 35.2-14.6 4.6-.9 8-5 8-9.7v-17.5c0-.9.7-1.6 1.6-1.6h19.3c.9 0 1.6.7 1.6 1.6v17.7c0 4.7 3.3 8.8 8 9.7 12.6 2.5 24.5 7.4 35.2 14.6z" fill="#3c92ca"/><path d="M286.35 147.05c0 32.4 26.4 58.8 58.8 58.8s58.8-26.4 58.8-58.8-26.4-58.8-58.8-58.8-58.8 26.4-58.8 58.8zm97.7 0c0 21.5-17.5 39-39 39s-39-17.5-39-39 17.5-39 39-39 39 17.6 39 39z" fill="#3c92ca"/></symbol><symbol id="icon-posts" viewBox="0 0 48 48"><title>posts</title><g id="Post_Card"><path d="M40.255 40H7.745C3.402 40 0 36.779 0 32.668V15.582C0 11.401 3.475 8 7.745 8h32.51C44.525 8 48 11.401 48 15.582v17.086C48 36.779 44.598 40 40.255 40zM7.745 10C4.577 10 2 12.504 2 15.582v17.086C2 35.658 4.523 38 7.745 38h32.51C43.477 38 46 35.658 46 32.668V15.582C46 12.504 43.423 10 40.255 10H7.745z" fill="#FFF"/><path d="M24 34.75a.75.75 0 0 1-.75-.75V16a.75.75 0 0 1 1.5 0v18a.75.75 0 0 1-.75.75zM38.501 20.522a.736.736 0 0 1-.44-.145c-2.062-1.506-2.865-2.423-3.188-3.635-.294-1.107.328-2.614 1.688-3.007a2.421 2.421 0 0 1 1.861.208c.572.315.987.835 1.168 1.462a.752.752 0 0 1-.513.929.755.755 0 0 1-.929-.513.942.942 0 0 0-1.17-.643c-.485.14-.77.766-.658 1.181.191.719.666 1.379 2.623 2.809a.749.749 0 0 1-.442 1.354z" fill="#FFF"/><path d="M38.954 20.668c-.488 0-.794-.207-1.065-.42a.75.75 0 1 1 .926-1.18c.104.082.143.102.149.106.446-.041.767.299.784.713a.744.744 0 0 1-.715.778 1.084 1.084 0 0 1-.079.003z" fill="#FFF"/><path d="M39.488 20.491a.75.75 0 0 1-.478-1.328c1.864-1.549 2.299-2.237 2.444-2.968.084-.418-.236-1.025-.729-1.134a.946.946 0 0 0-1.129.715.759.759 0 0 1-.896.569.751.751 0 0 1-.569-.896 2.426 2.426 0 0 1 1.076-1.531 2.434 2.434 0 0 1 1.844-.322c1.383.307 2.098 1.771 1.874 2.894-.247 1.231-.993 2.196-2.956 3.827a.744.744 0 0 1-.481.174z" fill="#FFF"/><path d="M39 20.667a.75.75 0 0 1-.018-1.5c.017 0 .052-.022.146-.109a.752.752 0 0 1 1.061.061.75.75 0 0 1-.062 1.059c-.271.241-.58.479-1.111.49L39 20.667zM19 26.5H8A.75.75 0 0 1 8 25h11a.75.75 0 0 1 0 1.5zM19 30.5H8A.75.75 0 0 1 8 29h11a.75.75 0 0 1 0 1.5zM19 34.5H8A.75.75 0 0 1 8 33h11a.75.75 0 0 1 0 1.5z" fill="#FFF"/></g></symbol><symbol id="icon-logout" viewBox="0 0 490.3 490.3"><title>logout</title><g fill="#FFF"><path d="M0 121.05v248.2c0 34.2 27.9 62.1 62.1 62.1h200.6c34.2 0 62.1-27.9 62.1-62.1v-40.2c0-6.8-5.5-12.3-12.3-12.3s-12.3 5.5-12.3 12.3v40.2c0 20.7-16.9 37.6-37.6 37.6H62.1c-20.7 0-37.6-16.9-37.6-37.6v-248.2c0-20.7 16.9-37.6 37.6-37.6h200.6c20.7 0 37.6 16.9 37.6 37.6v40.2c0 6.8 5.5 12.3 12.3 12.3s12.3-5.5 12.3-12.3v-40.2c0-34.2-27.9-62.1-62.1-62.1H62.1c-34.2 0-62.1 27.8-62.1 62.1z"/><path d="M385.4 337.65c2.4 2.4 5.5 3.6 8.7 3.6s6.3-1.2 8.7-3.6l83.9-83.9c4.8-4.8 4.8-12.5 0-17.3l-83.9-83.9c-4.8-4.8-12.5-4.8-17.3 0s-4.8 12.5 0 17.3l63 63H218.6c-6.8 0-12.3 5.5-12.3 12.3 0 6.8 5.5 12.3 12.3 12.3h229.8l-63 63c-4.8 4.7-4.8 12.5 0 17.2z"/></g></symbol><symbol id="icon-logo" viewBox="0 0 211.59 148.77"><title>logo</title><defs><style>.cls-1,.cls-3{stroke:#000;stroke-miterlimit:10}.cls-2{font-size:43.12px;font-family:RobotoCondensed-Light,Roboto Condensed}.cls-3{fill:none;stroke-width:2px}</style></defs><title>Asset 1</title><g id="Layer_2" data-name="Layer 2"><g id="base"><path class="cls-1" d="M207.73 48.81c-.78-2.74-1.46-5.52-2.37-8.21-3.56-10.55-13.08-17.66-23.7-17.7-17-.05-34-.1-51 0-11.57 0-14.74 2.18-18 13.42-8.15 28.26-16 56.62-24 84.91a98 98 0 0 1-5.21 14.43c-3.44 7.39-9.35 12-17.68 12.22-12.41.31-24.88.82-37.23 0C12.29 146.65.8 133.76.65 117.47Q.34 83 .67 48.6C.84 31.31 13.61 18.3 30.8 17.92c14.85-.33 29.71-.28 44.56 0 13.8.25 22.69 7.74 23.09 18.9 0 1.16-.5 2.35-1.22 5.41-1.8-2.85-3.15-4.1-3.41-5.56-1.69-9.39-8.21-13.32-16.68-13.59-15.92-.5-31.88-.68-47.79 0-13.57.52-23.59 11.44-23.74 25.07q-.39 34.84 0 69.68c.16 14 11 24.79 25.38 25.44 10.51.47 21.06.21 31.59.11 10.12-.09 15.92-6 18.67-15.06 4.61-15.23 9-30.55 13.31-45.86q6.63-23.36 13-46.78c2.91-10.58 8.29-17.81 20.61-18.2 2.17-.07 5.27-4.77 6.06-7.82 1.8-7 5.3-9.92 12.55-8.74a34.9 34.9 0 0 0 10.51 0c10.62-1.57 18.3.62 20.14 13 .24 1.63 4.07 3.53 6.47 3.92 13.64 2.21 24.1 11 26.9 23.59.53 2.37.08 5 .08 7.44zm-35.63-31.4c-.08-9.06-4.21-12.88-13-11.56a27.92 27.92 0 0 1-8 0C142.38 4.58 138 8.17 138 17.41z"/><path d="M120.19 81.61a34.59 34.59 0 0 1 35-34.7c19.13.07 35.13 16.13 35 35.1-.15 19.23-16 35.18-35 35.15-19.9-.03-35.19-15.55-35-35.55zM155.35 52a30.07 30.07 0 0 0-30.53 30.1c0 16.24 13.65 30.08 29.79 30.19a30.15 30.15 0 1 0 .74-60.29z"/><path d="M210.93 116.93c0 2.51.46 5.12-.08 7.51C208 137 197.21 147.21 184 147.72a571.9 571.9 0 0 1-57.43-.26c-16.28-1-27.47-15-26-32.24 2 2.94 3.59 4.31 4.07 6 4.32 15.09 13.12 22.09 28.66 22.21 14 .11 28.08 0 42.11 0 18.92-.08 26.82-6.28 31.51-24.53a6.83 6.83 0 0 1 1.26-1.86zM175.45 84c1.25 11.22-7.37 19.87-18.18 20.91-12.2 1.18-22.64-6.65-22.66-18.3 4.91 8.18 10.84 14.83 21.05 14.51 9.99-.28 15.12-7.39 19.79-17.12z"/></g><g id="text"><text class="cls-2" transform="translate(32.35 70.95)">M</text><text class="cls-2" transform="translate(36.88 119.86)">Z</text><path class="cls-3" d="M27.11 80.39H69.7"/></g></g></symbol><symbol id="icon-edit-color" viewBox="0 0 58.018 58.018"><title>edit-color</title><path fill="#edeada" d="M24.192 39.492l-7.778 2.121 2.122-7.778L48.362 4.009H0v54h54V9.685z"/><path d="M18.716 39.311a.999.999 0 0 1 0 1.414l-.358.358 5.793-1.58-5.627-5.627-1.58 5.792.358-.358a1 1 0 0 1 1.414.001z" fill="#f7e6a1"/><path d="M18.358 41.083l.358-.358a.999.999 0 1 0-1.414-1.414l-.358.358-.53 1.944 1.944-.53z" fill="#424a60"/><path fill="#ebba16" d="M51.062 12.622l-5.656-5.657-26.87 26.87-.012.041 5.627 5.627.041-.011z"/><path d="M57.437 3.44L54.587.59a1.985 1.985 0 0 0-2.807 0l-3.546 3.546 5.657 5.657 3.546-3.546a1.985 1.985 0 0 0 0-2.807z" fill="#ed7161"/><path transform="rotate(45.001 49.649 8.379)" fill="#f7e6a1" d="M45.648 6.379h8v4h-8z"/></symbol><symbol id="icon-dashboard" viewBox="0 0 91.914 91.914"><title>dashboard</title><g fill="#FFF"><path d="M1.124 0H90.79v14.089H1.124zM26.29 25.494h64.447v14.09H26.29zM1.124 52.33H90.79v14.09H1.124zM26.29 77.825h64.447v14.089H26.29z"/></g></symbol><symbol id="icon-albums" viewBox="0 0 512 512"><title>albums</title><path d="M464 128h-16v-16c0-26.51-21.49-48-48-48h-16V48c0-26.51-21.49-48-48-48H48C21.49 0 0 21.49 0 48v288c0 26.51 21.49 48 48 48h16v16c0 26.51 21.49 48 48 48h16v16c0 26.51 21.49 48 48 48h288c26.51 0 48-21.49 48-48V176c0-26.51-21.49-48-48-48zM32 265.44V48c0-8.837 7.163-16 16-16h288c8.837 0 16 7.163 16 16v153.44l-36.64-36.64c-6.241-6.204-16.319-6.204-22.56 0L224 233.44l-68.64-68.8c-6.241-6.204-16.319-6.204-22.56 0L32 265.44zM112 416c-8.837 0-16-7.163-16-16v-16h240c26.51 0 48-21.49 48-48V96h16c8.837 0 16 7.163 16 16v288c0 8.837-7.163 16-16 16H112zm368 48c0 8.837-7.163 16-16 16H176c-8.837 0-16-7.163-16-16v-16h240c26.51 0 48-21.49 48-48V160h16c8.837 0 16 7.163 16 16v288z" fill="#FFF"/></symbol><symbol id="icon-albums-color" viewBox="0 0 503.689 503.689"><title>albums-color</title><path d="M16.502 135.838L396.564 34.225c11.815-3.151 24.418 3.938 27.569 15.754l75.225 279.237c3.151 11.815-3.938 24.025-16.148 27.175L103.149 458.004c-11.815 3.151-24.418-3.938-27.569-15.754L.749 163.013c-3.151-11.815 3.938-24.024 15.753-27.175z" fill="#e4e7e7"/><path d="M48.404 158.287L380.81 69.672c9.058-2.363 18.511 3.151 21.268 12.209l62.228 231.188c2.363 9.058-3.151 18.511-12.209 20.874L119.69 422.558c-9.058 2.363-18.511-3.151-21.268-12.209L36.195 179.161c-2.757-9.059 2.757-18.511 12.209-20.874z" fill="#208db2"/><path d="M85.425 131.899H481.24c12.603 0 22.449 10.24 22.449 22.449v293.415c0 12.603-10.24 22.449-22.449 22.449H85.425c-12.603 0-22.449-10.24-22.449-22.449V154.349c0-12.21 10.24-22.45 22.449-22.45z" fill="#f3f3f3"/><path d="M111.813 163.407h343.828c9.452 0 17.329 7.877 17.329 17.329V421.77c0 9.452-7.877 17.329-17.329 17.329H111.813c-9.452 0-17.329-7.877-17.329-17.329V180.736c0-9.452 7.483-17.329 17.329-17.329z" fill="#a3e0f5"/><path d="M94.484 180.736v84.283c3.938.394 7.877.788 11.815.788 50.018 0 90.585-40.566 90.585-90.585 0-3.938-.394-7.877-.788-11.815h-84.283c-9.846 0-17.329 7.877-17.329 17.329z" fill="#efc75e"/><path d="M123.235 356.392c-9.846 0-19.692.788-28.751 1.969v63.409c0 9.452 7.877 17.329 17.329 17.329h131.151c.788-3.545 1.182-6.695 1.182-10.24-.001-40.172-53.957-72.467-120.911-72.467z" fill="#3db39e"/><path d="M397.745 320.945c-107.914 0-195.742 52.775-196.923 118.154h254.425c9.452 0 17.329-7.877 17.329-17.329v-91.766c-23.237-5.514-48.443-9.059-74.831-9.059z" fill="#4bc2ad"/></symbol><use xlink:href="#icon-albums-color" width="503.689" height="503.689"/><use xlink:href="#icon-albums" y="505.689" width="512" height="512"/><use xlink:href="#icon-dashboard" y="1019.689" width="512" height="512"/><use xlink:href="#icon-edit-color" y="1533.689" width="58.018" height="58.018"/><use xlink:href="#icon-logo" y="1593.707" width="211.59" height="148.77"/><use xlink:href="#icon-logout" y="1744.477" width="512" height="512"/><use xlink:href="#icon-posts" y="2258.477" width="512" height="512"/><use xlink:href="#icon-settings-color" y="2772.477" width="490.05" height="490.05"/><use xlink:href="#icon-settings" y="3264.527" width="512" height="512"/></svg>