<?xml version="1.0" encoding="iso-8859-1"?>
<!-- Generator: Adobe Illustrator 19.0.0, SVG Export Plug-In . SVG Version: 6.00 Build 0)  -->
<svg version="1.1" id="Capa_1" xmlns="http://www.w3.org/2000/svg" xmlns:xlink="http://www.w3.org/1999/xlink" x="0px" y="0px"
	 viewBox="0 0 512 512" style="enable-background:new 0 0 512 512;" xml:space="preserve">
<path style="fill:#FFD876;" d="M153.232,303.56l-49.148-160.324c-1.412-4.387-4.607-7.762-9.595-10.126
	c-4.968-2.344-10.657-3.526-17.087-3.546h-0.13c-6.48,0-12.219,1.182-17.217,3.546c-4.988,2.364-8.193,5.739-9.595,10.126
	L1.572,303.56c-0.351,1.402-0.521,2.364-0.521,2.885c0,4.567,2.844,8.503,8.544,11.829c5.689,3.335,11.608,4.998,17.738,4.998
	c7.532,0,11.999-2.544,13.401-7.622l8.944-32.852h55.458l8.934,32.852c1.402,5.078,5.869,7.622,13.401,7.622
	c6.13,0,12.049-1.663,17.738-4.998c5.699-3.325,8.544-7.262,8.544-11.829C153.753,305.924,153.583,304.962,153.232,303.56z
	 M58.082,251.258l19.19-70.441l0.13,0.481l19.06,69.961L58.082,251.258L58.082,251.258z"/>
<path style="fill:#FF623F;" d="M507.192,293.044c-2.284-3.676-5.258-5.519-8.944-5.519h-71.483l15.765-27.894l58.352-103.253
	c2.975-5.429,4.467-10.256,4.467-14.463c0-7.181-3.946-10.777-11.829-10.777H392.07c-4.036,0-7.101,1.753-9.205,5.258
	c-2.093,3.506-3.145,7.712-3.145,12.62c0,4.908,1.092,9.114,3.285,12.61c2.183,3.516,5.208,5.258,9.064,5.258h60.976l-10.517,18.609
	l-63.601,112.548c-2.985,5.078-4.467,9.896-4.467,14.453c0,7.191,3.936,10.777,11.819,10.777h111.967
	c3.686,0,6.661-1.843,8.944-5.519c2.274-3.686,3.415-7.792,3.415-12.35C510.608,300.846,509.466,296.729,507.192,293.044z"/>
<path style="fill:#B3FFFF;" d="M341.62,242.404l-69.23,78.003c-2.013,2.264-4.557,3.756-7.272,4.497c-0.06,0.02-0.12,0.03-0.18,0.05
	c-0.361,0.09-0.721,0.18-1.092,0.25c-0.15,0.02-0.29,0.04-0.431,0.06c-0.3,0.05-0.611,0.1-0.911,0.12
	c-0.341,0.04-0.681,0.05-1.022,0.06c-0.11,0-0.22,0.01-0.341,0.01c-0.01,0-0.02,0-0.02,0h-0.03c-0.12,0-0.23-0.01-0.341-0.01
	c-0.341-0.01-0.681-0.02-1.022-0.06c-0.3-0.02-0.601-0.07-0.911-0.12c-0.14-0.02-0.28-0.04-0.431-0.06
	c-0.371-0.07-0.731-0.15-1.092-0.25c-0.06-0.01-0.12-0.03-0.18-0.05c-2.714-0.741-5.258-2.234-7.271-4.497l-69.23-78.003
	c-5.509-6.2-4.948-15.695,1.262-21.204s15.705-4.938,21.214,1.262l13.271,14.954v-63.07c0-24.799,20.072-45.572,44.761-45.602
	c0.27,0,0.551,0.01,0.821,0.01c24.349,0.421,44.03,20.352,44.03,44.801v63.751l13.171-14.843c5.509-6.21,15.004-6.771,21.214-1.262
	S347.129,236.204,341.62,242.404z"/>
<path style="fill:#51FAFF;" d="M341.62,242.404l-69.23,78.003c-2.013,2.264-4.557,3.756-7.272,4.497c-0.06,0.02-0.12,0.03-0.18,0.05
	c-0.361,0.09-0.721,0.18-1.092,0.25c-0.15,0.02-0.29,0.04-0.431,0.06c-0.3,0.05-0.611,0.1-0.911,0.12
	c-0.341,0.04-0.681,0.05-1.022,0.06c-0.11,0-0.22,0.01-0.341,0.01c-0.01,0-0.02,0-0.02,0V128.744c0.27,0,0.551,0.01,0.821,0.01
	c24.349,0.421,44.03,20.352,44.03,44.801v63.751l13.171-14.843c5.509-6.21,15.004-6.771,21.214-1.262
	S347.129,236.204,341.62,242.404z"/>
<path style="fill:#B3FFFF;" d="M512,368.233c0,8.293-6.731,15.024-15.024,15.024H15.024C6.721,383.256,0,376.526,0,368.233
	c0-8.303,6.721-15.024,15.024-15.024h481.952C505.269,353.209,512,359.929,512,368.233z"/>
<path style="fill:#51FAFF;" d="M512,368.233c0,8.293-6.731,15.024-15.024,15.024H261.123v-30.048h235.853
	C505.269,353.209,512,359.929,512,368.233z"/>
<path style="fill:#FFB25F;" d="M153.753,306.445c0,4.567-2.844,8.503-8.544,11.829c-5.689,3.335-11.608,4.998-17.738,4.998
	c-7.532,0-11.999-2.544-13.401-7.622l-8.934-32.852H77.402v-31.54h19.06l-19.06-69.961v-51.732c6.43,0.02,12.119,1.202,17.087,3.546
	c4.988,2.364,8.183,5.739,9.595,10.126l49.148,160.324C153.583,304.962,153.753,305.924,153.753,306.445z"/>
<g>
	<path style="fill:#FF3200;" d="M505.349,141.915c0,4.207-1.492,9.034-4.467,14.463L442.53,259.631v-74.137l10.517-18.609H442.53
		v-35.747h50.991C501.403,131.137,505.349,134.733,505.349,141.915z"/>
	<path style="fill:#FF3200;" d="M510.608,305.403c0,4.557-1.142,8.664-3.415,12.35c-2.284,3.676-5.258,5.519-8.944,5.519H442.53
		v-35.747h55.718c3.686,0,6.661,1.843,8.944,5.519C509.466,296.729,510.608,300.846,510.608,305.403z"/>
</g>
<g>
</g>
<g>
</g>
<g>
</g>
<g>
</g>
<g>
</g>
<g>
</g>
<g>
</g>
<g>
</g>
<g>
</g>
<g>
</g>
<g>
</g>
<g>
</g>
<g>
</g>
<g>
</g>
<g>
</g>
</svg>
